<?xml version="1.0" encoding="iso-8859-1"?>
<svg version="1.1" id="Layer_1" xmlns="http://www.w3.org/2000/svg" xmlns:xlink="http://www.w3.org/1999/xlink" x="0px" y="0px"
	 viewBox="0 0 455 455" style="enable-background:new 0 0 455 455;" xml:space="preserve">
<g>
	<path d="M0,455h212.5V242.5H0V455z M42.5,298.75H170v30H42.5V298.75z M42.5,368.75H170v30H42.5V368.75z"/>
	<path d="M242.5,0v212.5H455V0H242.5z M383.222,161.935l-34.472-34.472l-32.73,32.73l-21.213-21.213l32.73-32.73l-34.472-34.472
		l21.213-21.213l34.472,34.472l32.73-32.73l21.213,21.213l-32.73,32.73l34.472,34.472L383.222,161.935z"/>
	<path d="M0,212.5h212.5V0H0V212.5z M42.5,91.25h48.75V44.962h30V91.25H170v30h-48.75v46.288h-30V121.25H42.5V91.25z"/>
	<path d="M242.5,455H455V242.5H242.5V455z M285,333.75h127.5v30H285V333.75z"/>
</g>
<g>
</g>
<g>
</g>
<g>
</g>
<g>
</g>
<g>
</g>
<g>
</g>
<g>
</g>
<g>
</g>
<g>
</g>
<g>
</g>
<g>
</g>
<g>
</g>
<g>
</g>
<g>
</g>
<g>
</g>
</svg>
