<?xml version="1.0" encoding="utf-8"?>
<!-- Svg Vector Icons : http://www.onlinewebfonts.com/icon -->
<!DOCTYPE svg PUBLIC "-//W3C//DTD SVG 1.1//EN" "http://www.w3.org/Graphics/SVG/1.1/DTD/svg11.dtd">
<svg version="1.1" xmlns="http://www.w3.org/2000/svg" xmlns:xlink="http://www.w3.org/1999/xlink" x="0px" y="0px" viewBox="0 0 1000 1000" enable-background="new 0 0 1000 1000" xml:space="preserve">
<metadata> Svg Vector Icons : http://www.onlinewebfonts.com/icon </metadata>
<g><g><g><g><path d="M488.9,576.2l57.7-57.8l-59-58.8L430,517.2c-24.1-16.4-51.7-27.8-81.3-33.5V402h-83.3v81.8c-29.6,5.8-57.1,17.1-81.3,33.5l-57.8-57.7l-58.8,58.8l57.5,57.8c-16.2,24-27.6,51.5-33.4,81.3H10v83.2h81.7c5.8,29.6,17.2,57.1,33.4,81.3l-57.5,57.7l58.8,58.8l57.7-57.7c24.1,16.3,51.7,27.8,81.3,33.5v81.7h83.2v-81.8c29.6-5.8,57.2-17.2,81.3-33.5l57.6,57.6l59-58.7L488.8,822c16.4-24.1,27.7-51.7,33.4-81.4h81.9v-83.1h-81.8C516.6,627.7,505.3,600.3,488.9,576.2z M307.1,789.9c-50,0-90.8-40.7-90.8-90.8c0-50.2,40.8-90.8,90.8-90.8c50.1,0,90.7,40.6,90.7,90.8C397.8,749.2,357.2,789.9,307.1,789.9z"/><path d="M970.2,655.4l0.6-0.4l-405-407.1l-0.6-191.6l-196-52.4l-20.9,20.9l104.2,104L351,230.4l-104.1-104l-20.9,20.8l52.6,195.8l186.4,0.6l-1.2,1l407.6,409.8l0.5-0.5c27.2,26.6,71,26.6,97.7-0.5C996.7,726.4,996.7,682.8,970.2,655.4z M943.8,727.5c-12.1,12.1-31.7,12.1-43.7,0c-12-12.1-12.1-31.5-0.1-43.6c12.2-12,31.7-12,43.8,0C955.8,695.9,955.9,715.4,943.8,727.5z"/></g></g><g></g><g></g><g></g><g></g><g></g><g></g><g></g><g></g><g></g><g></g><g></g><g></g><g></g><g></g><g></g></g><g></g><g></g><g></g><g></g><g></g><g></g><g></g><g></g><g></g><g></g><g></g><g></g><g></g><g></g><g></g></g>
</svg>